<?xml version="1.0" encoding="utf-8"?>
<!-- Generator: Adobe Illustrator 16.0.0, SVG Export Plug-In . SVG Version: 6.00 Build 0)  -->
<!DOCTYPE svg PUBLIC "-//W3C//DTD SVG 1.1//EN" "http://www.w3.org/Graphics/SVG/1.1/DTD/svg11.dtd">
<svg version="1.1" id="Layer_1" xmlns="http://www.w3.org/2000/svg" xmlns:xlink="http://www.w3.org/1999/xlink" x="0px" y="0px"
	 width="256px" height="256px" viewBox="0 0 256 256" enable-background="new 0 0 256 256" xml:space="preserve">
<linearGradient id="SVGID_1_" gradientUnits="userSpaceOnUse" x1="0.3828" y1="128" x2="255.6172" y2="128">
	<stop  offset="0" style="stop-color:#FFFFFF"/>
	<stop  offset="0" style="stop-color:#E5F4E8"/>
	<stop  offset="0" style="stop-color:#C6E7CC"/>
	<stop  offset="0" style="stop-color:#AADBB4"/>
	<stop  offset="0" style="stop-color:#94D2A1"/>
	<stop  offset="0" style="stop-color:#83CB92"/>
	<stop  offset="0" style="stop-color:#78C688"/>
	<stop  offset="0" style="stop-color:#71C382"/>
	<stop  offset="0" style="stop-color:#6FC280"/>
	<stop  offset="0.1523" style="stop-color:#78C37E"/>
	<stop  offset="0.3712" style="stop-color:#8DC777"/>
	<stop  offset="0.6303" style="stop-color:#AECE6A"/>
	<stop  offset="0.918" style="stop-color:#D7D853"/>
	<stop  offset="1" style="stop-color:#E3DB4B"/>
	<stop  offset="1" style="stop-color:#E3DB4B"/>
</linearGradient>
<path fill="url(#SVGID_1_)" d="M255.617,214.779c0,22.555-18.283,40.838-40.838,40.838H41.22c-22.554,0-40.837-18.283-40.837-40.838
	V41.22c0-22.554,18.283-40.837,40.837-40.837h173.559c22.555,0,40.838,18.283,40.838,40.837V214.779z"/>
<path d="M242.104,205.59c0,20.167-16.348,36.514-36.514,36.514H50.41c-20.166,0-36.513-16.347-36.513-36.514V50.41
	c0-20.166,16.347-36.513,36.513-36.513h155.18c20.166,0,36.514,16.347,36.514,36.513V205.59z"/>
<g>
	
		<linearGradient id="SVGID_2_" gradientUnits="userSpaceOnUse" x1="213.0566" y1="-139" x2="398.9434" y2="-139" gradientTransform="matrix(1 0 0 -1 -178 -11)">
		<stop  offset="0" style="stop-color:#FFFFFF"/>
		<stop  offset="0" style="stop-color:#E5F4E8"/>
		<stop  offset="0" style="stop-color:#C6E7CC"/>
		<stop  offset="0" style="stop-color:#AADBB4"/>
		<stop  offset="0" style="stop-color:#94D2A1"/>
		<stop  offset="0" style="stop-color:#83CB92"/>
		<stop  offset="0" style="stop-color:#78C688"/>
		<stop  offset="0" style="stop-color:#71C382"/>
		<stop  offset="0" style="stop-color:#6FC280"/>
		<stop  offset="0.1523" style="stop-color:#78C37E"/>
		<stop  offset="0.3712" style="stop-color:#8DC777"/>
		<stop  offset="0.6303" style="stop-color:#AECE6A"/>
		<stop  offset="0.918" style="stop-color:#D7D853"/>
		<stop  offset="1" style="stop-color:#E3DB4B"/>
		<stop  offset="1" style="stop-color:#E3DB4B"/>
	</linearGradient>
	<circle fill="none" stroke="url(#SVGID_2_)" stroke-width="8" stroke-miterlimit="10" cx="128" cy="128" r="88.943"/>
	<g>
		
			<linearGradient id="SVGID_3_" gradientUnits="userSpaceOnUse" x1="223.1982" y1="-115.5947" x2="394.8135" y2="-115.5947" gradientTransform="matrix(1 0 0 -1 -178 -11)">
			<stop  offset="0" style="stop-color:#FFFFFF"/>
			<stop  offset="0" style="stop-color:#E5F4E8"/>
			<stop  offset="0" style="stop-color:#C6E7CC"/>
			<stop  offset="0" style="stop-color:#AADBB4"/>
			<stop  offset="0" style="stop-color:#94D2A1"/>
			<stop  offset="0" style="stop-color:#83CB92"/>
			<stop  offset="0" style="stop-color:#78C688"/>
			<stop  offset="0" style="stop-color:#71C382"/>
			<stop  offset="0" style="stop-color:#6FC280"/>
			<stop  offset="0.1523" style="stop-color:#78C37E"/>
			<stop  offset="0.3712" style="stop-color:#8DC777"/>
			<stop  offset="0.6303" style="stop-color:#AECE6A"/>
			<stop  offset="0.918" style="stop-color:#D7D853"/>
			<stop  offset="1" style="stop-color:#E3DB4B"/>
			<stop  offset="1" style="stop-color:#E3DB4B"/>
		</linearGradient>
		<path fill="none" stroke="url(#SVGID_3_)" stroke-width="8" stroke-miterlimit="10" d="M45.198,92.582
			c17.16,0,17.16,24.026,34.32,24.026c17.161,0,17.161-24.026,34.323-24.026c17.16,0,17.16,24.026,34.32,24.026
			c17.163,0,17.163-24.026,34.326-24.026c17.165,0,17.165,24.026,34.326,24.026"/>
	</g>
</g>
</svg>
